<svg width="28" height="17" viewBox="0 0 28 17" fill="none" xmlns="http://www.w3.org/2000/svg">
<path d="M1.09799 7.23971L11.7252 0.881491C11.9881 0.721523 12.2892 0.635093 12.5969 0.631233C12.9046 0.627373 13.2077 0.706224 13.4746 0.859547C13.7641 1.02815 14.0038 1.27036 14.1695 1.5616C14.3351 1.85284 14.4207 2.18272 14.4176 2.51775V6.96569L24.5862 0.879803C24.8492 0.719835 25.1502 0.633405 25.4579 0.629545C25.7656 0.625685 26.0688 0.704536 26.3356 0.857859C26.6251 1.02646 26.8649 1.26867 27.0305 1.55991C27.1961 1.85115 27.2818 2.18103 27.2786 2.51606V14.9512C27.2819 15.2863 27.1964 15.6163 27.0307 15.9077C26.8651 16.199 26.6253 16.4413 26.3356 16.6099C26.0688 16.7632 25.7656 16.8421 25.4579 16.8382C25.1502 16.8344 24.8492 16.7479 24.5862 16.588L14.4176 10.4993V14.9489C14.4213 15.2844 14.3359 15.6149 14.1703 15.9067C14.0046 16.1985 13.7646 16.4411 13.4746 16.6099C13.2077 16.7632 12.9046 16.8421 12.5969 16.8382C12.2892 16.8344 11.9881 16.7479 11.7252 16.588L1.09799 10.2298C0.845351 10.0715 0.637066 9.85164 0.492682 9.59083C0.348299 9.33001 0.272552 9.03678 0.272552 8.73867C0.272552 8.44056 0.348299 8.14733 0.492682 7.88651C0.637066 7.6257 0.845351 7.40584 1.09799 7.24758V7.23971Z" fill="#E1E1E6"/>
</svg>
