<svg width="30" height="30" viewBox="0 0 30 30" fill="none" xmlns="http://www.w3.org/2000/svg">
<path d="M8.08019 25.086C7.73472 25.0853 7.39537 24.9948 7.09551 24.8232C6.4203 24.4406 6.00055 23.6978 6.00055 22.8915V6.57398C6.00055 5.76542 6.4203 5.02494 7.09551 4.64232C7.40251 4.46589 7.75126 4.37516 8.10532 4.37961C8.45938 4.38407 8.80574 4.48354 9.1082 4.66764L23.0541 13.0155C23.3447 13.1977 23.5843 13.4508 23.7504 13.751C23.9165 14.0511 24.0036 14.3886 24.0036 14.7316C24.0036 15.0747 23.9165 15.4121 23.7504 15.7123C23.5843 16.0125 23.3447 16.2655 23.0541 16.4478L9.10595 24.7979C8.79642 24.985 8.44189 25.0846 8.08019 25.086Z" fill="#E1E1E6"/>
</svg>
