<svg width="28" height="17" viewBox="0 0 28 17" fill="none" xmlns="http://www.w3.org/2000/svg">
<path d="M26.9014 7.23971L16.2742 0.881491C16.0113 0.721523 15.7103 0.635093 15.4025 0.631233C15.0948 0.627373 14.7917 0.706224 14.5249 0.859547C14.2353 1.02815 13.9956 1.27036 13.8299 1.5616C13.6643 1.85284 13.5787 2.18272 13.5818 2.51775V6.96569L3.41317 0.879803C3.15026 0.719835 2.84922 0.633405 2.54149 0.629545C2.23377 0.625685 1.93065 0.704536 1.66382 0.857859C1.37429 1.02646 1.13453 1.26867 0.968902 1.55991C0.803272 1.85115 0.717664 2.18103 0.720775 2.51606V14.9512C0.717565 15.2863 0.803125 15.6163 0.96876 15.9076C1.1344 16.199 1.3742 16.4413 1.66382 16.6099C1.93065 16.7632 2.23377 16.8421 2.54149 16.8382C2.84922 16.8344 3.15026 16.7479 3.41317 16.588L13.5818 10.4993V14.9489C13.5782 15.2844 13.6636 15.6149 13.8292 15.9066C13.9949 16.1984 14.2349 16.4411 14.5249 16.6099C14.7917 16.7632 15.0948 16.8421 15.4025 16.8382C15.7103 16.8344 16.0113 16.7479 16.2742 16.588L26.9014 10.2298C27.1541 10.0715 27.3624 9.85164 27.5067 9.59083C27.6511 9.33001 27.7269 9.03678 27.7269 8.73867C27.7269 8.44056 27.6511 8.14733 27.5067 7.88651C27.3624 7.6257 27.1541 7.40584 26.9014 7.24758V7.23971Z" fill="#E1E1E6"/>
</svg>
